<?xml version="1.0" encoding="utf-8"?>
<svg width="149.25px" height="47px" viewBox="0 0 149.25 47" version="1.1" xmlns:xlink="http://www.w3.org/1999/xlink" xmlns="http://www.w3.org/2000/svg">
  <g id="Group">
    <g id="michael_salam" fill="#FFFFFF">
      <path d="M16.6973 17.7944L16.6973 15.5029L18.9888 15.5029L18.9888 17.7944L16.6973 17.7944ZM36.2446 30.1519L36.2446 15.5029L38.0723 15.5029L38.0723 21.9692Q39.334 19.854 41.5049 19.854Q44.3716 19.854 44.3716 23.2588L44.3716 30.1519L42.5439 30.1519L42.5439 23.7598Q42.5439 22.5815 42.1775 22.0852Q41.811 21.5889 40.9482 21.5889Q39.5752 21.5889 38.0723 23.5649L38.0723 30.1519L36.2446 30.1519ZM74.3931 16.876L74.3931 30.1519L76.2207 30.1519L76.2207 15.5029L70.5059 15.5029L70.5059 16.876L74.3931 16.876ZM120.186 16.876L120.186 30.1519L122.014 30.1519L122.014 15.5029L116.299 15.5029L116.299 16.876L120.186 16.876ZM1.07422 30.1519L1.07422 20.0767L2.6792 20.0767L2.6792 21.9692Q3.85742 19.854 4.92432 19.854Q6.28809 19.854 6.67773 21.9692L6.74268 21.9692Q7.70752 19.854 9.00635 19.854Q9.95264 19.854 10.3794 20.5452Q10.8062 21.2363 10.8062 22.7764L10.8062 30.1519L9.20117 30.1519L9.20117 22.8506Q9.20117 22.0249 9.08057 21.728Q8.95996 21.4312 8.62598 21.4312Q7.75391 21.4312 6.74268 23.6484L6.74268 30.1519L5.1377 30.1519L5.1377 23.1846Q5.1377 22.1455 5.01709 21.7976Q4.89648 21.4497 4.53467 21.4497Q4.14502 21.4497 3.61157 22.0852Q3.07813 22.7207 2.6792 23.667L2.6792 30.1519L1.07422 30.1519ZM30.103 30.3838Q31.7173 30.3838 33.3408 29.8271L33.3408 28.3892Q31.6802 29.0107 30.3535 29.0107Q28.5815 29.0107 27.575 27.9763Q26.5684 26.9419 26.5684 25.1143Q26.5684 23.3052 27.51 22.2661Q28.4517 21.2271 30.103 21.2271Q31.3647 21.2271 33.1553 21.8672L33.1553 20.3364Q31.5317 19.854 29.936 19.854Q27.4312 19.854 26.0256 21.2456Q24.6201 22.6372 24.6201 25.1143Q24.6201 27.6377 26.0442 29.0107Q27.4683 30.3838 30.103 30.3838ZM50.439 30.3281Q52.0903 30.3281 53.751 28.9365Q54.2228 30.3281 55.5734 30.3281Q56.0451 30.3281 56.9609 30.0313L56.7939 28.9365Q56.395 29.0293 56.2188 29.0293Q55.6807 29.0293 55.4858 28.7Q55.291 28.3706 55.291 27.4614L55.291 23.2402Q55.291 21.3755 54.4988 20.6147Q53.7066 19.854 51.7887 19.854Q50.084 19.854 48.1382 20.5498L48.1382 22.1177Q49.8359 21.2271 51.4224 21.2271Q52.5171 21.2271 52.9902 21.6816Q53.4634 22.1362 53.4634 23.2031L53.4634 24.0659L52.3315 24.0659Q50.0493 24.0659 48.6577 25.0215Q47.2661 25.9771 47.2661 27.5449Q47.2661 28.751 48.1614 29.5396Q49.0566 30.3281 50.439 30.3281ZM67.6392 29.7529Q65.7373 30.3838 64.1509 30.3838Q61.5532 30.3838 60.157 29.0479Q58.7607 27.7119 58.7607 25.2256Q58.7607 22.8784 60.1013 21.3662Q61.4419 19.854 63.5107 19.854Q65.5981 19.854 66.5862 21.1064Q67.5742 22.3589 67.5742 25.0029L67.5742 25.5874L60.709 25.5874Q60.9131 29.0107 64.4014 29.0107Q65.8765 29.0107 67.6392 28.3057L67.6392 29.7529ZM93.5322 28.0923L93.5322 29.7437Q95.5083 30.3838 97.2432 30.3838Q99.2285 30.3838 100.407 29.5349Q101.585 28.686 101.585 27.2573Q101.585 26.2739 101.033 25.657Q100.481 25.04 99.2192 24.5947L96.9092 23.7876Q95.5454 23.3145 95.5454 22.563Q95.5454 21.9507 96.1438 21.5889Q96.7422 21.2271 97.7441 21.2271Q99.2378 21.2271 101.047 21.7744L101.047 20.29Q99.1729 19.854 97.7534 19.854Q95.8608 19.854 94.8264 20.6055Q93.792 21.3569 93.792 22.73Q93.792 24.604 96.0835 25.3462L98.041 25.9863Q99.7759 26.543 99.7759 27.4243Q99.7759 28.1108 99.0476 28.5608Q98.3193 29.0107 97.2061 29.0107Q95.6567 29.0107 93.5322 28.0923ZM110.992 28.9365Q109.332 30.3281 107.68 30.3281Q106.298 30.3281 105.403 29.5396Q104.507 28.751 104.507 27.5449Q104.507 25.9771 105.899 25.0215Q107.291 24.0659 109.573 24.0659L110.705 24.0659L110.705 23.2031Q110.705 22.1362 110.231 21.6816Q109.758 21.2271 108.664 21.2271Q107.077 21.2271 105.379 22.1177L105.379 20.5498Q107.325 19.854 109.03 19.854Q110.948 19.854 111.74 20.6147Q112.532 21.3755 112.532 23.2402L112.532 27.4614Q112.532 28.3706 112.727 28.7Q112.922 29.0293 113.46 29.0293Q113.636 29.0293 114.035 28.9365L114.202 30.0313Q113.286 30.3281 112.815 30.3281Q111.464 30.3281 110.992 28.9365ZM133.889 28.9365Q132.228 30.3281 130.577 30.3281Q129.194 30.3281 128.299 29.5396Q127.404 28.751 127.404 27.5449Q127.404 25.9771 128.795 25.0215Q130.187 24.0659 132.469 24.0659L133.601 24.0659L133.601 23.2031Q133.601 22.1362 133.128 21.6816Q132.655 21.2271 131.56 21.2271Q129.974 21.2271 128.276 22.1177L128.276 20.5498Q130.222 19.854 131.926 19.854Q133.844 19.854 134.637 20.6147Q135.429 21.3755 135.429 23.2402L135.429 27.4614Q135.429 28.3706 135.624 28.7Q135.818 29.0293 136.356 29.0293Q136.533 29.0293 136.932 28.9365L137.099 30.0313Q136.183 30.3281 135.711 30.3281Q134.361 30.3281 133.889 28.9365ZM140.058 20.0767L138.453 20.0767L138.453 30.1519L140.058 30.1519L140.058 23.667Q140.457 22.7207 140.99 22.0852Q141.524 21.4497 141.914 21.4497Q142.275 21.4497 142.396 21.7976Q142.517 22.1455 142.517 23.1846L142.517 30.1519L144.122 30.1519L144.122 23.6484Q145.133 21.4312 146.005 21.4312Q146.339 21.4312 146.459 21.728Q146.58 22.0249 146.58 22.8506L146.58 30.1519L148.185 30.1519L148.185 22.7764Q148.185 21.2363 147.758 20.5452Q147.332 19.854 146.385 19.854Q145.086 19.854 144.122 21.9692L144.057 21.9692Q143.667 19.854 142.303 19.854Q141.236 19.854 140.058 21.9692L140.058 20.0767ZM16.9292 30.1519L16.9292 21.4497L13.2646 21.4497L13.2646 20.0767L18.7568 20.0767L18.7568 30.1519L16.9292 30.1519ZM60.7646 24.2144L65.626 24.2144L65.626 23.9546Q65.626 21.2271 63.353 21.2271Q62.2583 21.2271 61.5764 22.0156Q60.8945 22.8042 60.7646 24.2144ZM53.4634 25.207L53.4634 27.749Q52.1182 28.8623 50.9214 28.8623Q50.1235 28.8623 49.6411 28.417Q49.1587 27.9717 49.1587 27.2388Q49.1587 25.207 52.916 25.207L53.4634 25.207ZM110.705 27.749L110.705 25.207L110.157 25.207Q106.4 25.207 106.4 27.2388Q106.4 27.9717 106.882 28.417Q107.365 28.8623 108.163 28.8623Q109.359 28.8623 110.705 27.749ZM133.601 27.749L133.601 25.207L133.054 25.207Q129.296 25.207 129.296 27.2388Q129.296 27.9717 129.779 28.417Q130.261 28.8623 131.059 28.8623Q132.256 28.8623 133.601 27.749ZM80.3491 31.5249L80.3491 30.1519L91.7974 30.1519L91.7974 31.5249L80.3491 31.5249Z" />
    </g>
  </g>
</svg>